<svg version="1.1" xmlns="http://www.w3.org/2000/svg" width="433px" height="82px" style=""><path fill="#0e31e3" d="M80.0849609375,65.0966796875q0-7.4169921875,0.66650390625-14.85107421875t2.78564453125-14.64599609375q0.615234375-2.1533203125,1.6064453125-4.25537109375t2.4267578125-3.74267578125t3.41796875-2.666015625t4.716796875-1.025390625l0.7177734375,0.068359375q2.939453125,0.41015625,4.3408203125,2.37548828125t1.4013671875,4.90478515625q0,0.7861328125-0.18798828125,1.96533203125t-0.59814453125,2.27294921875t-1.11083984375,1.86279296875t-1.76025390625,0.76904296875q-0.478515625-0.068359375-0.87158203125-0.1708984375t-0.73486328125-0.4443359375q0.546875-1.1962890625,0.97412109375-2.4951171875t0.42724609375-2.9736328125q0-0.615234375-0.1025390625-1.572265625t-0.39306640625-1.89697265625t-0.76904296875-1.640625t-1.3330078125-0.70068359375q-2.1533203125,0-3.623046875,2.40966796875t-2.4609375,6.15234375t-1.4697265625,8.271484375t-0.73486328125,8.75t-0.29052734375,7.6220703125t-0.0341796875,4.80224609375q0,1.640625-0.0341796875,3.623046875l0,0.4443359375q0.0341796875,1.7431640625,0.2392578125,3.3154296875q0.2734375,1.77734375,1.0595703125,3.076171875t2.4609375,1.50390625q0.5126953125,0.068359375,0.9912109375,0.068359375q1.982421875,0,3.5888671875-1.1279296875q1.982421875-1.4013671875,3.5205078125-3.64013671875t2.734375-4.921875t2.20458984375-5.07568359375t1.96533203125-3.96484375t1.982421875-1.572265625q0.341796875,0,1.025390625,0.13671875t0.68359375,0.6494140625q0,0.13671875-0.068359375,0.3759765625t-0.1708984375,0.3759765625q-0.9228515625,3.623046875-2.34130859375,7.51953125t-3.623046875,7.09228515625t-5.400390625,5.21240234375t-7.67333984375,2.0166015625q-3.212890625,0-5.21240234375-1.21337890625t-3.076171875-3.2470703125t-1.4697265625-4.59716796875t-0.39306640625-5.1953125z M116.50922851562,75.384765625q0-0.9912109375,0.08544921875-2.0849609375t0.15380859375-2.05078125l0.205078125-5.126953125q0.341796875-6.15234375,0.83740234375-12.099609375t0.83740234375-12.03125q0.205078125-3.349609375,0.3076171875-6.57958984375t0.3076171875-6.57958984375q-0.13671875-0.2734375-0.13671875-0.3759765625q0-0.478515625,0.35888671875-0.751953125t0.83740234375-0.46142578125t1.00830078125-0.25634765625t0.80322265625-0.068359375l0.7861328125,0q1.0595703125,0.13671875,1.5380859375,0.66650390625t0.615234375,1.2646484375t0.068359375,1.572265625t-0.068359375,1.55517578125q0,4.9560546875-0.2392578125,10.10009765625t-0.546875,10.322265625t-0.56396484375,10.3564453125t-0.25634765625,10.23681640625l0,2.392578125q0,1.6064453125-0.90576171875,2.119140625t-2.51220703125,0.5126953125q-1.4013671875,0-2.4609375-0.615234375t-1.0595703125-2.0166015625z M131.50283203125,63.900390625q0-1.9482421875,0.49560546875-4.01611328125t1.572265625-3.7255859375t2.71728515625-2.7001953125t3.96484375-1.04248046875q1.7431640625,0,3.67431640625,0.59814453125t3.53759765625,1.708984375t2.61474609375,2.71728515625t1.00830078125,3.5888671875q0,2.392578125-0.87158203125,4.5458984375t-2.44384765625,3.84521484375t-3.67431640625,2.666015625t-4.56298828125,0.97412109375q-2.0166015625,0-3.5205078125-0.73486328125t-2.51220703125-1.96533203125t-1.50390625-2.9052734375t-0.49560546875-3.5546875z M136.52724609375,63.83203125q0,0.615234375,0.18798828125,1.8115234375t0.56396484375,2.34130859375t0.97412109375,1.982421875t1.45263671875,0.76904296875q1.8115234375-0.205078125,2.99072265625-1.17919921875t1.9140625-2.37548828125t1.025390625-3.0419921875t0.29052734375-3.1103515625q0-1.8798828125-0.73486328125-3.14453125t-2.40966796875-2.05078125q0,0.068359375,0.068359375,0.068359375t0.068359375-0.068359375l-0.8544921875-0.205078125q-0.341796875-0.13671875-0.83740234375-0.3076171875t-0.97412109375-0.751953125q-1.3330078125,0.478515625-2.06787109375,1.23046875t-1.11083984375,1.82861328125t-0.46142578125,2.58056640625t-0.08544921875,3.623046875z M157.39975585938,62.5673828125q0-2.4609375,0.63232421875-4.93896484375t1.96533203125-4.443359375t3.40087890625-3.19580078125t4.87060546875-1.23046875q1.1962890625,0,2.6318359375,0.29052734375t2.64892578125,0.9228515625t2.05078125,1.640625t0.83740234375,2.47802734375q0,0.9228515625-0.478515625,1.23046875t-1.2646484375,0.3076171875l-0.2392578125-0.341796875t-0.66650390625-0.87158203125t-0.90576171875-1.1279296875t-0.9228515625-1.00830078125q-1.4013671875-1.4013671875-2.6318359375-1.50390625l-0.2734375,0q-1.025390625,0-1.9140625,0.615234375q-0.9912109375,0.751953125-1.76025390625,2.119140625t-1.28173828125,2.9052734375t-0.80322265625,3.1103515625t-0.29052734375,2.59765625q0,1.4013671875,0.32470703125,3.19580078125t1.09375,3.40087890625t1.9482421875,2.7001953125t3.02490234375,1.09375q1.6748046875,0,3.0419921875-0.8203125t2.61474609375-1.82861328125t2.44384765625-1.8115234375t2.4609375-0.80322265625q0.546875,0,1.11083984375,0.13671875t0.56396484375,0.7177734375l0,0.205078125q-0.615234375,1.6064453125-2.0849609375,2.8369140625t-3.29833984375,2.13623046875t-3.7939453125,1.35009765625t-3.50341796875,0.4443359375q-2.87109375,0-5.04150390625-0.93994140625t-3.60595703125-2.58056640625t-2.17041015625-3.94775390625t-0.73486328125-5.04150390625z M187.22734375,77.1279296875l0.7177734375-0.8544921875q-0.13671875-5.7421875-0.3076171875-11.4501953125t-0.1708984375-11.34765625q0-7.0068359375,0.83740234375-13.55224609375t1.65771484375-13.41552734375q0.068359375-0.41015625,0.39306640625-0.66650390625t0.80322265625-0.42724609375t0.97412109375-0.2392578125t0.90576171875-0.068359375q0.546875,0,1.3671875,0.205078125t1.640625,1.1962890625q0,0.341796875,0.05126953125,0.59814453125t0.05126953125,0.59814453125q0,2.59765625-0.70068359375,5.5712890625t-0.93994140625,5.7080078125q-0.2734375,3.349609375-0.3759765625,6.630859375t-0.1025390625,6.6650390625l0.068359375,3.0078125q0.68359375-0.8544921875,1.9482421875-2.1875t2.734375-2.58056640625t2.939453125-2.13623046875t2.666015625-0.888671875q1.8115234375,0,2.51220703125,1.025390625t0.70068359375,2.7001953125q0,1.5380859375-0.66650390625,3.212890625t-1.7431640625,3.26416015625t-2.44384765625,2.85400390625t-2.7001953125,1.8798828125q1.8115234375,2.255859375,3.70849609375,4.306640625t4.15283203125,3.8623046875l0,0.7861328125q-0.068359375,0.341796875-0.42724609375,0.5126953125t-0.7861328125,0.2734375t-0.83740234375,0.15380859375t-0.68359375,0.05126953125q-1.6748046875,0-3.22998046875-0.9912109375t-2.9052734375-2.4267578125t-2.54638671875-3.0419921875t-2.1875-2.802734375q0.205078125,3.9306640625,0.46142578125,7.84423828125t0.25634765625,7.84423828125q0,0.478515625-0.42724609375,0.80322265625t-0.9912109375,0.49560546875t-1.14501953125,0.2392578125t-0.95703125,0.068359375q-2.0166015625,0-2.85400390625-0.73486328125t-1.41845703125-2.54638671875z M194.2341796875,61.029296875q0.8544921875,0,2.03369140625-0.73486328125t2.44384765625-1.82861328125t2.3583984375-2.30712890625t1.76025390625-2.30712890625t0.66650390625-1.76025390625t-0.9228515625-0.59814453125q-0.341796875,0-1.4013671875,0.9912109375t-2.3583984375,2.4267578125t-2.59765625,3.1103515625t-1.982421875,3.0078125z M214.90161132812,75.521484375q0.13671875-7.1435546875,0.59814453125-14.2529296875t0.80322265625-14.2529296875q0.068359375-2.734375,0.068359375-4.97314453125t0.22216796875-3.87939453125t0.8203125-2.51220703125t1.99951171875-0.87158203125q1.1962890625,0,1.8115234375,0.341796875t0.93994140625,0.87158203125t0.39306640625,1.1962890625t0.068359375,1.35009765625q0,0.9912109375,0.068359375,1.96533203125t0.068359375,1.96533203125q0,7.2119140625-0.39306640625,14.3896484375t-0.39306640625,14.4580078125q0,1.0595703125,0.0341796875,2.13623046875t0.0341796875,2.20458984375q0,0.41015625-0.3759765625,0.68359375t-0.93994140625,0.46142578125t-1.1962890625,0.25634765625t-1.04248046875,0.068359375q-0.478515625,0-1.07666015625-0.068359375t-1.162109375-0.29052734375t-0.95703125-0.52978515625t-0.39306640625-0.7177734375z M216.81567382812,29.173828125q0-0.341796875,0.1025390625-0.76904296875t0.2392578125-0.76904296875q0.068359375-0.41015625,0.205078125-1.4013671875t0.49560546875-1.93115234375t0.9912109375-1.6748046875t1.79443359375-0.73486328125l0.6494140625,0q0.546875,0.13671875,1.11083984375,0.341796875t0.56396484375,0.9912109375q0,0.341796875-0.0341796875,0.6494140625t-0.1025390625,0.68359375q-0.2734375,2.0166015625-0.52978515625,3.1787109375t-0.59814453125,1.76025390625t-0.87158203125,0.76904296875t-1.35009765625,0.2392578125q-0.2734375,0-0.73486328125-0.0341796875t-0.888671875-0.1708984375t-0.73486328125-0.42724609375t-0.3076171875-0.70068359375z M229.99775390625,63.421875l0-0.9912109375q0-1.23046875,0.068359375-2.32421875q0.068359375-1.5380859375,0.068359375-2.529296875q0-0.546875,0.068359375-1.24755859375t0.341796875-1.11083984375q0.341796875-0.341796875,0.80322265625-0.70068359375t1.00830078125-0.35888671875q1.7431640625,0,2.734375,0.39306640625t1.0595703125,1.62353515625l0.13671875,1.0595703125q0.615234375-1.4697265625,1.640625-3.64013671875t2.37548828125-4.1357421875t3.0419921875-3.349609375t3.57177734375-1.38427734375q1.7431640625,0,2.87109375,1.640625t1.79443359375,4.18701171875t0.93994140625,5.673828125t0.3759765625,6.13525390625t0.13671875,5.48583984375t0.2392578125,3.74267578125q0.13671875,1.0595703125,0.46142578125,2.23876953125t0.32470703125,2.17041015625q0,0.2734375-0.39306640625,0.52978515625t-0.83740234375,0.42724609375t-0.90576171875,0.2734375t-0.66650390625,0.1025390625q-1.3330078125,0-1.89697265625-1.99951171875t-0.70068359375-5.00732421875t-0.13671875-6.51123046875t-0.2392578125-6.51123046875t-0.97412109375-5.00732421875t-2.34130859375-2.06787109375q-1.4697265625,0-3.0419921875,1.89697265625t-2.7001953125,5.04150390625q-1.09375,3.14453125-1.50390625,7.1435546875q-0.13671875,1.2646484375-0.13671875,2.529296875q0,2.7685546875,0.5810546875,5.537109375q0.068359375,0.478515625-0.39306640625,0.7177734375t-1.14501953125,0.3759765625t-1.38427734375,0.1708984375t-1.07666015625,0.0341796875q-1.3330078125,0-2.13623046875-0.93994140625t-1.24755859375-2.40966796875t-0.59814453125-3.29833984375t-0.18798828125-3.60595703125z M261.08999023438,63.421875l0-0.9912109375q0-1.23046875,0.068359375-2.32421875q0.068359375-1.5380859375,0.068359375-2.529296875q0-0.546875,0.068359375-1.24755859375t0.341796875-1.11083984375q0.341796875-0.341796875,0.80322265625-0.70068359375t1.00830078125-0.35888671875q1.7431640625,0,2.734375,0.39306640625t1.0595703125,1.62353515625l0.13671875,1.0595703125q0.615234375-1.4697265625,1.640625-3.64013671875t2.37548828125-4.1357421875t3.0419921875-3.349609375t3.57177734375-1.38427734375q1.7431640625,0,2.87109375,1.640625t1.79443359375,4.18701171875t0.93994140625,5.673828125t0.3759765625,6.13525390625t0.13671875,5.48583984375t0.2392578125,3.74267578125q0.13671875,1.0595703125,0.46142578125,2.23876953125t0.32470703125,2.17041015625q0,0.2734375-0.39306640625,0.52978515625t-0.83740234375,0.42724609375t-0.90576171875,0.2734375t-0.66650390625,0.1025390625q-1.3330078125,0-1.89697265625-1.99951171875t-0.70068359375-5.00732421875t-0.13671875-6.51123046875t-0.2392578125-6.51123046875t-0.97412109375-5.00732421875t-2.34130859375-2.06787109375q-1.4697265625,0-3.0419921875,1.89697265625t-2.7001953125,5.04150390625q-1.09375,3.14453125-1.50390625,7.1435546875q-0.13671875,1.2646484375-0.13671875,2.529296875q0,2.7685546875,0.5810546875,5.537109375q0.068359375,0.478515625-0.39306640625,0.7177734375t-1.14501953125,0.3759765625t-1.38427734375,0.1708984375t-1.07666015625,0.0341796875q-1.3330078125,0-2.13623046875-0.93994140625t-1.24755859375-2.40966796875t-0.59814453125-3.29833984375t-0.18798828125-3.60595703125z"/><path fill="#" d=""/></svg>
